<svg xmlns="http://www.w3.org/2000/svg" version="1.1" xmlns:xlink="http://www.w3.org/1999/xlink" xmlns:svgjs="http://svgjs.dev/svgjs" width="2000" height="151" viewBox="0 0 2000 151"><g transform="matrix(1,0,0,1,-1.2121212121212466,-0.03908195273260162)"><svg viewBox="0 0 396 30" data-background-color="#ffffff" preserveAspectRatio="xMidYMid meet" height="151" width="2000" xmlns="http://www.w3.org/2000/svg" xmlns:xlink="http://www.w3.org/1999/xlink"><g id="tight-bounds" transform="matrix(1,0,0,1,0.2400000000000091,0.0077646263707151775)"><svg viewBox="0 0 395.52 29.984470747258566" height="29.984470747258566" width="395.52"><g><svg viewBox="0 0 448.2534029350491 33.9822032960788" height="29.984470747258566" width="395.52"><g><rect width="3.004460943994302" height="33.482465012312936" x="41.86386098583416" y="0.2498691418829324" fill="#ffffff" opacity="1" stroke-width="0" stroke="transparent" fill-opacity="1" class="rect-qz-0" data-fill-palette-color="primary" rx="1%" id="qz-0" data-palette-color="#113f67"></rect></g><g transform="matrix(1,0,0,1,52.73340293504915,0.3331588558439087)"><svg viewBox="0 0 395.52 33.31588558439098" height="33.31588558439098" width="395.52"><g id="textblocktransform"><svg viewBox="0 0 395.52 33.31588558439098" height="33.31588558439098" width="395.52" id="textblock"><g><svg viewBox="0 0 395.52 33.31588558439098" height="33.31588558439098" width="395.52"><g transform="matrix(1,0,0,1,0,0)"><svg width="395.52" viewBox="-0.24 -32.03 386.61 32.57" height="33.31588558439098" data-palette-color="#113f67"><path d="M28.69-28.98Q29.52-28.98 29.87-28.6 30.22-28.22 30.22-27.32L30.22-27.32Q30.22-26.42 29.87-26.04 29.52-25.66 28.69-25.66L28.69-25.66 27.37-25.66 24-1.05Q23.88-0.17 23.38 0.18 22.88 0.54 21.9 0.54L21.9 0.54Q19.9 0.54 19.41-1.05L19.41-1.05 14.89-15.23 10.33-1.05Q9.81 0.54 7.79 0.54L7.79 0.54Q6.84 0.54 6.34 0.17 5.83-0.2 5.74-1.05L5.74-1.05 2.49-25.66 1.29-25.66Q0.46-25.66 0.11-26.04-0.24-26.42-0.24-27.32L-0.24-27.32Q-0.24-28.22 0.11-28.6 0.46-28.98 1.29-28.98L1.29-28.98 9.69-28.98Q10.52-28.98 10.88-28.6 11.23-28.22 11.23-27.32L11.23-27.32Q11.23-26.42 10.88-26.04 10.52-25.66 9.69-25.66L9.69-25.66 6.13-25.66 8.57-6.1 13.16-20.46Q13.5-21.61 14.92-21.61L14.92-21.61Q15.7-21.61 16.13-21.36 16.55-21.12 16.7-20.63L16.7-20.63 21.26-6.1 23.8-25.66 20.78-25.66Q19.95-25.66 19.59-26.04 19.24-26.42 19.24-27.32L19.24-27.32Q19.24-28.22 19.59-28.6 19.95-28.98 20.78-28.98L20.78-28.98 28.69-28.98ZM44.97-23.1Q48.31-23.1 51-21.58 53.68-20.07 55.21-17.37 56.74-14.67 56.74-11.28L56.74-11.28Q56.74-7.89 55.21-5.19 53.68-2.49 51-0.98 48.31 0.54 44.97 0.54L44.97 0.54Q41.62 0.54 38.94-0.98 36.25-2.49 34.73-5.19 33.2-7.89 33.2-11.28L33.2-11.28Q33.2-14.67 34.73-17.37 36.25-20.07 38.94-21.58 41.62-23.1 44.97-23.1L44.97-23.1ZM44.97-19.48Q42.6-19.48 40.81-18.44 39.01-17.41 38.03-15.54 37.06-13.67 37.06-11.28L37.06-11.28Q37.06-8.89 38.03-7.02 39.01-5.15 40.81-4.11 42.6-3.08 44.97-3.08L44.97-3.08Q47.34-3.08 49.13-4.11 50.93-5.15 51.9-7.02 52.88-8.89 52.88-11.28L52.88-11.28Q52.88-13.67 51.9-15.54 50.93-17.41 49.13-18.44 47.34-19.48 44.97-19.48L44.97-19.48ZM82.42-23.1Q84.32-23.1 85.98-22.12L85.98-22.12Q86.96-21.53 86.96-20.61L86.96-20.61Q86.96-20.17 86.74-19.58L86.74-19.58Q86.23-18.19 85.32-18.19L85.32-18.19Q84.96-18.19 84.64-18.38L84.64-18.38Q83.44-19.04 82.08-19.04L82.08-19.04Q79.88-19.04 77.66-17.52 75.43-15.99 74.01-13.45 72.58-10.91 72.58-8.06L72.58-8.06 72.58-3.32 80.81-3.32Q81.64-3.32 81.99-2.94 82.34-2.56 82.34-1.66L82.34-1.66Q82.34-0.76 81.99-0.38 81.64 0 80.81 0L80.81 0 65.08 0Q64.25 0 63.9-0.38 63.54-0.76 63.54-1.66L63.54-1.66Q63.54-2.56 63.9-2.94 64.25-3.32 65.08-3.32L65.08-3.32 68.92-3.32 68.92-19.24 65.82-19.24Q64.99-19.24 64.63-19.62 64.28-20 64.28-20.9L64.28-20.9Q64.28-21.8 64.63-22.18 64.99-22.56 65.82-22.56L65.82-22.56 70.8-22.56Q71.63-22.56 71.98-22.18 72.33-21.8 72.33-20.9L72.33-20.9 72.33-15.97Q73.51-18.12 75.17-19.73 76.83-21.34 78.71-22.22 80.59-23.1 82.42-23.1L82.42-23.1ZM113.44-32.03Q114.27-32.03 114.63-31.65 114.98-31.27 114.98-30.37L114.98-30.37 114.98-3.32 116.98-3.32Q117.81-3.32 118.17-2.94 118.52-2.56 118.52-1.66L118.52-1.66Q118.52-0.76 118.17-0.38 117.81 0 116.98 0L116.98 0 113.1 0Q112.27 0 111.92-0.38 111.56-0.76 111.56-1.66L111.56-1.66 111.56-3.61Q110.03-1.61 108-0.54 105.97 0.54 103.58 0.54L103.58 0.54Q100.55 0.54 98.16-0.89 95.77-2.32 94.4-4.99 93.03-7.67 93.03-11.28L93.03-11.28Q93.03-14.89 94.4-17.57 95.77-20.24 98.16-21.67 100.55-23.1 103.58-23.1L103.58-23.1Q108.17-23.1 111.32-19.07L111.32-19.07 111.32-28.71 107.37-28.71Q106.54-28.71 106.18-29.09 105.83-29.47 105.83-30.37L105.83-30.37Q105.83-31.27 106.18-31.65 106.54-32.03 107.37-32.03L107.37-32.03 113.44-32.03ZM103.83-19.48Q101.65-19.48 100.09-18.44 98.53-17.41 97.71-15.55 96.89-13.7 96.89-11.28L96.89-11.28Q96.89-8.86 97.71-7.01 98.53-5.15 100.09-4.11 101.65-3.08 103.83-3.08L103.83-3.08Q106-3.08 107.7-4.05 109.39-5.03 110.36-6.88 111.32-8.74 111.32-11.28L111.32-11.28Q111.32-13.82 110.36-15.67 109.39-17.53 107.7-18.51 106-19.48 103.83-19.48L103.83-19.48ZM135.54-32.03Q136.37-32.03 136.72-31.65 137.07-31.27 137.07-30.37L137.07-30.37 137.07-3.32 144.91-3.32Q145.74-3.32 146.1-2.94 146.45-2.56 146.45-1.66L146.45-1.66Q146.45-0.76 146.1-0.38 145.74 0 144.91 0L144.91 0 125.77 0Q124.94 0 124.59-0.38 124.23-0.76 124.23-1.66L124.23-1.66Q124.23-2.56 124.59-2.94 124.94-3.32 125.77-3.32L125.77-3.32 133.41-3.32 133.41-28.71 126.75-28.71Q125.92-28.71 125.56-29.09 125.21-29.47 125.21-30.37L125.21-30.37Q125.21-31.27 125.56-31.65 125.92-32.03 126.75-32.03L126.75-32.03 135.54-32.03ZM165.1-23.1Q168.64-23.1 171.14-21.67 173.64-20.24 174.99-17.71 176.33-15.19 176.53-11.89L176.53-11.89Q176.53-11.06 176.17-10.72 175.82-10.38 174.99-10.38L174.99-10.38 157.31-10.38Q157.48-6.74 159.47-4.87 161.46-3 165.1-3L165.1-3Q167.35-3 169.54-3.58 171.74-4.15 173.4-5.1L173.4-5.1Q173.82-5.32 174.16-5.32L174.16-5.32Q175.01-5.32 175.55-4.03L175.55-4.03Q175.77-3.52 175.77-3.1L175.77-3.1Q175.77-2.12 174.69-1.59L174.69-1.59Q172.81-0.63 170.25-0.05 167.69 0.54 165.1 0.54L165.1 0.54Q161.41 0.54 158.8-0.88 156.19-2.29 154.82-4.96 153.45-7.62 153.45-11.28L153.45-11.28Q153.45-14.77 154.94-17.46 156.43-20.14 159.07-21.62 161.71-23.1 165.1-23.1L165.1-23.1ZM165.1-19.56Q162.1-19.56 160.13-18.03 158.17-16.5 157.56-13.79L157.56-13.79 172.47-13.79Q171.96-16.6 170.12-18.08 168.27-19.56 165.1-19.56L165.1-19.56ZM225.69-28.98Q228.74-28.98 230.93-27.95 233.11-26.93 234.25-25.07 235.38-23.22 235.38-20.75L235.38-20.75Q235.38-17.97 233.58-16.04 231.77-14.11 228.62-13.4L228.62-13.4Q229.99-12.87 230.89-11.67L230.89-11.67Q231.65-10.67 232.18-9.68 232.72-8.69 233.38-7.25L233.38-7.25Q234.06-5.76 234.43-5.08L234.43-5.08Q235.38-3.32 236.63-3.32L236.63-3.32 237.31-3.32Q238.14-3.32 238.5-2.94 238.85-2.56 238.85-1.66L238.85-1.66Q238.85-0.76 238.5-0.38 238.14 0 237.31 0L237.31 0 235.55 0Q234.09 0 233.08-0.77 232.06-1.54 231.11-3.39L231.11-3.39Q230.57-4.47 229.79-6.23L229.79-6.23Q229.06-7.84 228.61-8.73 228.16-9.62 227.52-10.5L227.52-10.5Q226.79-11.52 225.76-12.05 224.74-12.57 223.3-12.57L223.3-12.57 219.98-12.57 219.98-3.32 223.15-3.32Q223.98-3.32 224.34-2.94 224.69-2.56 224.69-1.66L224.69-1.66Q224.69-0.76 224.34-0.38 223.98 0 223.15 0L223.15 0 213.34 0Q212.51 0 212.15-0.38 211.8-0.76 211.8-1.66L211.8-1.66Q211.8-2.56 212.15-2.94 212.51-3.32 213.34-3.32L213.34-3.32 216.32-3.32 216.32-25.66 213.34-25.66Q212.51-25.66 212.15-26.04 211.8-26.42 211.8-27.32L211.8-27.32Q211.8-28.22 212.15-28.6 212.51-28.98 213.34-28.98L213.34-28.98 225.69-28.98ZM219.98-25.66L219.98-15.89 224.93-15.89Q231.53-15.89 231.53-20.75L231.53-20.75Q231.53-23.1 229.87-24.38 228.21-25.66 225.18-25.66L225.18-25.66 219.98-25.66ZM255.03-23.1Q258.57-23.1 261.08-21.67 263.58-20.24 264.92-17.71 266.26-15.19 266.46-11.89L266.46-11.89Q266.46-11.06 266.11-10.72 265.75-10.38 264.92-10.38L264.92-10.38 247.25-10.38Q247.42-6.74 249.41-4.87 251.4-3 255.03-3L255.03-3Q257.28-3 259.48-3.58 261.67-4.15 263.33-5.1L263.33-5.1Q263.75-5.32 264.09-5.32L264.09-5.32Q264.95-5.32 265.48-4.03L265.48-4.03Q265.7-3.52 265.7-3.1L265.7-3.1Q265.7-2.12 264.63-1.59L264.63-1.59Q262.75-0.63 260.19-0.05 257.62 0.54 255.03 0.54L255.03 0.54Q251.35 0.54 248.73-0.88 246.12-2.29 244.76-4.96 243.39-7.62 243.39-11.28L243.39-11.28Q243.39-14.77 244.88-17.46 246.37-20.14 249-21.62 251.64-23.1 255.03-23.1L255.03-23.1ZM255.03-19.56Q252.03-19.56 250.07-18.03 248.1-16.5 247.49-13.79L247.49-13.79 262.41-13.79Q261.89-16.6 260.05-18.08 258.21-19.56 255.03-19.56L255.03-19.56ZM298.88-3.32Q299.71-3.32 300.06-2.94 300.42-2.56 300.42-1.66L300.42-1.66Q300.42-0.76 300.06-0.38 299.71 0 298.88 0L298.88 0 295.24 0Q294.41 0 294.06-0.38 293.7-0.76 293.7-1.66L293.7-1.66 293.7-16.11Q293.7-17.8 293.15-18.64 292.6-19.48 291.38-19.48L291.38-19.48Q290.24-19.48 289.26-18.42 288.28-17.36 287.71-15.47 287.14-13.57 287.14-11.16L287.14-11.16 287.14-3.32 288.53-3.32Q289.36-3.32 289.71-2.94 290.07-2.56 290.07-1.66L290.07-1.66Q290.07-0.76 289.71-0.38 289.36 0 288.53 0L288.53 0 285.01 0Q284.18 0 283.83-0.38 283.47-0.76 283.47-1.66L283.47-1.66 283.47-16.11Q283.47-17.8 282.92-18.64 282.37-19.48 281.15-19.48L281.15-19.48Q280.01-19.48 279.03-18.42 278.05-17.36 277.48-15.47 276.91-13.57 276.91-11.16L276.91-11.16 276.91-3.32 278.18-3.32Q279.01-3.32 279.36-2.94 279.71-2.56 279.71-1.66L279.71-1.66Q279.71-0.76 279.36-0.38 279.01 0 278.18 0L278.18 0 271.24 0Q270.41 0 270.06-0.38 269.7-0.76 269.7-1.66L269.7-1.66Q269.7-2.56 270.06-2.94 270.41-3.32 271.24-3.32L271.24-3.32 273.24-3.32 273.24-19.24 271.24-19.24Q270.41-19.24 270.06-19.62 269.7-20 269.7-20.9L269.7-20.9Q269.7-21.8 270.06-22.18 270.41-22.56 271.24-22.56L271.24-22.56 274.88-22.56Q275.71-22.56 276.06-22.18 276.42-21.8 276.42-20.9L276.42-20.9 276.42-18.48Q277.47-20.78 278.93-21.94 280.4-23.1 282.11-23.1L282.11-23.1Q283.77-23.1 285.01-21.97 286.26-20.85 286.7-18.68L286.7-18.68Q288.87-23.1 292.31-23.1L292.31-23.1Q293.75-23.1 294.89-22.38 296.02-21.66 296.69-20.18 297.37-18.7 297.37-16.55L297.37-16.55 297.37-3.32 298.88-3.32ZM314.87-23.1Q319.46-23.1 321.75-21.04 324.05-18.99 324.05-14.97L324.05-14.97 324.05-5.25Q324.05-3.32 325.66-3.32L325.66-3.32 326.51-3.32Q327.34-3.32 327.7-2.94 328.05-2.56 328.05-1.66L328.05-1.66Q328.05-0.76 327.7-0.38 327.34 0 326.51 0L326.51 0 324.95 0Q323.36 0 322.23-0.79 321.09-1.59 320.75-3.13L320.75-3.13Q318.75-1.37 316.42-0.42 314.09 0.54 311.47 0.54L311.47 0.54Q309.01 0.54 307.12-0.31 305.22-1.15 304.15-2.76 303.08-4.37 303.08-6.59L303.08-6.59Q303.08-10.45 305.83-12.29 308.59-14.14 312.96-14.14L312.96-14.14Q316.85-14.14 320.39-12.89L320.39-12.89 320.39-14.97Q320.39-17.33 319.05-18.44 317.72-19.56 314.77-19.56L314.77-19.56Q312.94-19.56 310.96-19.04 308.98-18.53 307.2-17.63L307.2-17.63Q306.79-17.41 306.44-17.41L306.44-17.41Q305.64-17.41 305.1-18.58L305.1-18.58Q304.83-19.17 304.83-19.56L304.83-19.56Q304.83-20.41 305.74-20.87L305.74-20.87Q307.79-21.95 310.14-22.52 312.5-23.1 314.87-23.1L314.87-23.1ZM312.99-10.69Q310.18-10.69 308.56-9.73 306.93-8.76 306.93-6.67L306.93-6.67Q306.93-4.88 308.17-3.89 309.4-2.91 311.62-2.91L311.62-2.91Q316.48-2.91 320.39-6.93L320.39-6.93 320.39-9.59Q318.73-10.13 316.82-10.41 314.92-10.69 312.99-10.69L312.99-10.69ZM356.52-3.32Q357.35-3.32 357.7-2.94 358.05-2.56 358.05-1.66L358.05-1.66Q358.05-0.76 357.7-0.38 357.35 0 356.52 0L356.52 0 348.61 0Q347.78 0 347.42-0.38 347.07-0.76 347.07-1.66L347.07-1.66Q347.07-2.56 347.42-2.94 347.78-3.32 348.61-3.32L348.61-3.32 350.36-3.32 344.24-10.6 339.79-6.69 339.79-3.32 341.57-3.32Q342.4-3.32 342.76-2.94 343.11-2.56 343.11-1.66L343.11-1.66Q343.11-0.76 342.76-0.38 342.4 0 341.57 0L341.57 0 333.42 0Q332.59 0 332.24-0.38 331.88-0.76 331.88-1.66L331.88-1.66Q331.88-2.56 332.24-2.94 332.59-3.32 333.42-3.32L333.42-3.32 336.13-3.32 336.13-28.71 332.93-28.71Q332.1-28.71 331.75-29.09 331.39-29.47 331.39-30.37L331.39-30.37Q331.39-31.27 331.75-31.65 332.1-32.03 332.93-32.03L332.93-32.03 338.25-32.03Q339.08-32.03 339.44-31.65 339.79-31.27 339.79-30.37L339.79-30.37 339.79-11.04 349.09-19.24 347.36-19.24Q346.53-19.24 346.18-19.62 345.82-20 345.82-20.9L345.82-20.9Q345.82-21.8 346.18-22.18 346.53-22.56 347.36-22.56L347.36-22.56 355.51-22.56Q356.34-22.56 356.7-22.18 357.05-21.8 357.05-20.9L357.05-20.9Q357.05-20 356.7-19.62 356.34-19.24 355.51-19.24L355.51-19.24 354.07-19.24 346.9-12.92 355.1-3.32 356.52-3.32ZM374.95-23.1Q378.49-23.1 380.99-21.67 383.49-20.24 384.83-17.71 386.18-15.19 386.37-11.89L386.37-11.89Q386.37-11.06 386.02-10.72 385.66-10.38 384.83-10.38L384.83-10.38 367.16-10.38Q367.33-6.74 369.32-4.87 371.31-3 374.95-3L374.95-3Q377.19-3 379.39-3.58 381.59-4.15 383.25-5.1L383.25-5.1Q383.66-5.32 384-5.32L384-5.32Q384.86-5.32 385.39-4.03L385.39-4.03Q385.61-3.52 385.61-3.1L385.61-3.1Q385.61-2.12 384.54-1.59L384.54-1.59Q382.66-0.63 380.1-0.05 377.53 0.54 374.95 0.54L374.95 0.54Q371.26 0.54 368.65-0.88 366.03-2.29 364.67-4.96 363.3-7.62 363.3-11.28L363.3-11.28Q363.3-14.77 364.79-17.46 366.28-20.14 368.92-21.62 371.55-23.1 374.95-23.1L374.95-23.1ZM374.95-19.56Q371.94-19.56 369.98-18.03 368.01-16.5 367.4-13.79L367.4-13.79 382.32-13.79Q381.81-16.6 379.96-18.08 378.12-19.56 374.95-19.56L374.95-19.56Z" opacity="1" transform="matrix(1,0,0,1,0,0)" fill="#ffffff" class="wordmark-text-0" data-fill-palette-color="primary" id="text-0"></path></svg></g></svg></g></svg></g></svg></g><g><svg viewBox="0 0 33.99877998061347 33.9822032960788" height="33.9822032960788" width="33.99877998061347"><g><svg xmlns="http://www.w3.org/2000/svg" xmlns:xlink="http://www.w3.org/1999/xlink" version="1.1" x="0" y="0" viewBox="3.5 3.5 41.02 41.00000000000001" style="enable-background:new 0 0 48 48;" xml:space="preserve" height="33.9822032960788" width="33.99877998061347" class="icon-icon-0" data-fill-palette-color="accent" id="icon-0"><g fill="#87c0cd" data-fill-palette-color="accent"><path d="M44.11 20.07c-0.1-0.5-0.23-0.99-0.36-1.47-0.05-0.17-0.08-0.34-0.13-0.51-0.12-0.38-0.26-0.75-0.39-1.12-0.1-0.27-0.19-0.54-0.3-0.81-0.11-0.27-0.24-0.52-0.36-0.78-0.17-0.36-0.33-0.72-0.52-1.08-0.08-0.15-0.18-0.3-0.26-0.45-0.25-0.44-0.51-0.88-0.79-1.3-0.02-0.03-0.04-0.06-0.06-0.09-0.71-1.04-1.52-2.04-2.44-2.96-0.93-0.93-1.93-1.74-2.98-2.45C35.49 7.04 35.47 7.02 35.45 7c-0.43-0.29-0.87-0.55-1.31-0.8-0.15-0.08-0.29-0.18-0.43-0.26-0.36-0.19-0.72-0.36-1.09-0.53-0.26-0.12-0.51-0.25-0.77-0.36-0.27-0.11-0.55-0.2-0.83-0.3-0.37-0.13-0.73-0.27-1.11-0.39-0.17-0.05-0.35-0.09-0.53-0.14-0.48-0.13-0.96-0.26-1.45-0.35-0.05-0.01-0.09-0.01-0.14-0.02C26.56 3.63 25.3 3.5 24 3.5s-2.56 0.13-3.79 0.37c-0.05 0.01-0.09 0.01-0.14 0.02-0.49 0.1-0.97 0.22-1.45 0.35-0.18 0.05-0.35 0.08-0.53 0.14-0.38 0.11-0.74 0.25-1.11 0.39-0.28 0.1-0.55 0.19-0.83 0.3-0.26 0.11-0.51 0.24-0.77 0.36-0.37 0.17-0.73 0.33-1.09 0.53-0.15 0.08-0.29 0.17-0.43 0.26-0.44 0.25-0.88 0.51-1.31 0.8-0.02 0.02-0.05 0.04-0.07 0.05C11.43 7.77 10.43 8.58 9.5 9.5c-0.92 0.92-1.73 1.92-2.44 2.96C7.04 12.5 7.02 12.52 7 12.55c-0.28 0.42-0.54 0.86-0.79 1.3C6.13 14 6.03 14.15 5.95 14.3c-0.19 0.35-0.35 0.71-0.52 1.07-0.12 0.26-0.25 0.52-0.36 0.78-0.11 0.27-0.2 0.54-0.3 0.81-0.14 0.37-0.28 0.74-0.39 1.13-0.05 0.17-0.08 0.34-0.13 0.5-0.13 0.49-0.26 0.98-0.36 1.48-0.01 0.04-0.01 0.07-0.02 0.11C3.64 21.42 3.5 22.69 3.5 24s0.14 2.58 0.37 3.82c0.01 0.04 0.01 0.07 0.02 0.11 0.1 0.5 0.23 0.99 0.36 1.48 0.05 0.17 0.08 0.34 0.13 0.5 0.12 0.38 0.26 0.75 0.39 1.13 0.1 0.27 0.19 0.54 0.3 0.81 0.11 0.27 0.24 0.52 0.36 0.78 0.17 0.36 0.33 0.72 0.52 1.07 0.08 0.15 0.18 0.3 0.26 0.45 0.25 0.44 0.5 0.87 0.79 1.3 0.02 0.03 0.04 0.06 0.06 0.09 0.71 1.04 1.52 2.04 2.44 2.96 0.93 0.93 1.93 1.74 2.98 2.45 0.02 0.02 0.04 0.03 0.07 0.05 0.43 0.29 0.87 0.55 1.32 0.8 0.14 0.08 0.28 0.17 0.43 0.25 0.36 0.19 0.73 0.36 1.09 0.53 0.25 0.12 0.5 0.24 0.76 0.35 0.28 0.11 0.56 0.21 0.84 0.31 0.36 0.13 0.72 0.27 1.1 0.38 0.18 0.05 0.36 0.09 0.54 0.14 0.47 0.13 0.95 0.25 1.44 0.35 0.06 0.01 0.11 0.02 0.17 0.03 1.22 0.23 2.48 0.36 3.77 0.36s2.54-0.13 3.77-0.36c0.06-0.01 0.11-0.01 0.17-0.03 0.49-0.1 0.96-0.22 1.44-0.35 0.18-0.05 0.36-0.09 0.54-0.14 0.37-0.11 0.73-0.25 1.1-0.38 0.28-0.1 0.56-0.19 0.84-0.31 0.26-0.11 0.51-0.23 0.76-0.35 0.37-0.17 0.74-0.34 1.09-0.53 0.15-0.08 0.28-0.17 0.43-0.25 0.44-0.25 0.89-0.51 1.32-0.8 0.02-0.02 0.04-0.03 0.07-0.05 1.05-0.71 2.05-1.52 2.98-2.45 0.92-0.92 1.73-1.92 2.44-2.96 0.02-0.03 0.04-0.06 0.06-0.09 0.29-0.42 0.54-0.86 0.79-1.3 0.09-0.15 0.18-0.29 0.26-0.45 0.19-0.35 0.35-0.71 0.52-1.08 0.12-0.26 0.25-0.52 0.36-0.78 0.11-0.27 0.2-0.54 0.3-0.81 0.14-0.37 0.28-0.74 0.39-1.12 0.05-0.17 0.09-0.34 0.13-0.51 0.13-0.49 0.26-0.97 0.36-1.47 0.01-0.04 0.01-0.07 0.02-0.11 0.23-1.24 0.37-2.51 0.37-3.82s-0.14-2.58-0.37-3.82C44.12 20.15 44.12 20.11 44.11 20.07zM39.95 12.81c0.05 0.07 0.11 0.14 0.16 0.21 0.02 0.03 0.05 0.06 0.07 0.09 0.27 0.4 0.51 0.81 0.75 1.23 0.08 0.15 0.18 0.29 0.26 0.44 0.18 0.33 0.33 0.67 0.49 1.01 0.12 0.25 0.25 0.5 0.35 0.76 0.1 0.24 0.18 0.5 0.27 0.75 0.13 0.36 0.27 0.73 0.38 1.09 0.04 0.15 0.07 0.3 0.12 0.45 0.13 0.48 0.26 0.95 0.35 1.43 0 0.02 0 0.04 0.01 0.05 0.02 0.1 0.03 0.2 0.04 0.29-0.89-1.11-2.21-2.12-3.87-2.98C39.89 15.82 40.1 14.2 39.95 12.81zM38.42 17.19c-1.51-0.69-3.27-1.26-5.2-1.7l2.45-2.45 2.44-2.44C39.19 12.04 39.3 14.32 38.42 17.19zM33.49 24.5h1.17c-0.38 0.54-0.78 1.08-1.21 1.62C33.48 25.59 33.48 25.04 33.49 24.5zM33.45 21.88c0.42 0.54 0.83 1.08 1.21 1.62h-1.17C33.48 22.96 33.48 22.41 33.45 21.88zM35.6 24.91c1.02 1.61 1.85 3.22 2.44 4.77 0.02 0.04 0.03 0.08 0.04 0.13-1.51 0.69-3.27 1.28-5.22 1.73 0.21-1.17 0.37-2.39 0.48-3.67C34.15 26.89 34.91 25.9 35.6 24.91zM33.33 20.13c-0.11-1.27-0.27-2.49-0.48-3.67 1.95 0.45 3.71 1.03 5.22 1.73-0.02 0.04-0.03 0.08-0.04 0.13-0.59 1.55-1.42 3.16-2.44 4.77C34.91 22.1 34.15 21.11 33.33 20.13zM37.39 9.9l-2.43 2.43-2.45 2.45c-0.44-1.92-1.01-3.67-1.69-5.18C32.09 9.21 33.28 9 34.33 9 35.56 9 36.6 9.3 37.39 9.9zM31.88 16.83c0.11 0.64 0.21 1.3 0.3 1.98-0.36-0.39-0.73-0.78-1.11-1.16L31.88 16.83zM30.36 16.94c-0.39-0.38-0.77-0.75-1.16-1.11 0.67 0.08 1.33 0.18 1.97 0.3L30.36 16.94zM27.87 14.67c-0.98-0.82-1.96-1.57-2.93-2.25 1.68-1.06 3.34-1.89 4.88-2.47 0.69 1.51 1.27 3.26 1.72 5.2C30.36 14.94 29.14 14.78 27.87 14.67zM26.11 14.55c-0.69-0.03-1.4-0.05-2.11-0.05-0.71 0-1.42 0.02-2.11 0.05 0.7-0.55 1.41-1.06 2.11-1.53C24.7 13.49 25.41 14 26.11 14.55zM20.13 14.67c-1.27 0.11-2.49 0.27-3.67 0.48 0.44-1.94 1.03-3.7 1.72-5.2 1.55 0.58 3.2 1.41 4.88 2.47C22.09 13.1 21.11 13.84 20.13 14.67zM18.8 15.83c-0.51 0.47-1.02 0.95-1.52 1.45-0.5 0.5-0.98 1.01-1.45 1.53 0.11-0.88 0.24-1.74 0.41-2.57C17.06 16.07 17.92 15.94 18.8 15.83zM17.99 17.99c0.83-0.83 1.69-1.61 2.55-2.34 1.13-0.09 2.28-0.15 3.46-0.15 1.18 0 2.33 0.06 3.46 0.15 0.74 0.63 1.47 1.29 2.19 1.99l-5.86 5.86h-8.28c0.01-1.01 0.06-2 0.14-2.97C16.38 19.67 17.16 18.82 17.99 17.99zM22.79 24.5l-5.15 5.15c-0.7-0.71-1.37-1.44-2-2.18-0.08-0.97-0.13-1.96-0.14-2.97H22.79zM18.81 32.17c-0.67-0.08-1.34-0.18-1.98-0.3l0.81-0.81C18.03 31.45 18.42 31.81 18.81 32.17zM16.94 30.36l-0.81 0.81c-0.11-0.64-0.21-1.3-0.3-1.98C16.19 29.58 16.56 29.97 16.94 30.36zM20.13 33.33c0.97 0.82 1.95 1.58 2.93 2.26-1.68 1.05-3.33 1.88-4.88 2.46-0.69-1.5-1.27-3.26-1.71-5.19C17.64 33.06 18.86 33.22 20.13 33.33zM21.9 33.45c0.69 0.03 1.39 0.05 2.1 0.05 0.71 0 1.41-0.02 2.1-0.05-0.7 0.54-1.4 1.06-2.1 1.53C23.3 34.51 22.6 34 21.9 33.45zM27.87 33.33c1.27-0.11 2.49-0.27 3.67-0.48-0.44 1.94-1.03 3.69-1.71 5.2-1.55-0.58-3.2-1.4-4.88-2.46C25.91 34.91 26.89 34.15 27.87 33.33zM29.19 32.17c0.51-0.47 1.02-0.95 1.53-1.46 0.5-0.5 0.98-1.01 1.45-1.53-0.11 0.88-0.24 1.74-0.41 2.57C30.93 31.93 30.07 32.06 29.19 32.17zM30.01 30.01c-0.83 0.83-1.69 1.61-2.55 2.34-1.13 0.09-2.28 0.15-3.46 0.15-1.18 0-2.33-0.06-3.46-0.15-0.74-0.63-1.47-1.29-2.19-2l5.86-5.86h8.28c-0.01 1.01-0.06 2-0.14 2.97C31.62 28.33 30.84 29.18 30.01 30.01zM25.21 23.5l5.15-5.15c0.7 0.71 1.36 1.44 2 2.18 0.08 0.97 0.13 1.96 0.14 2.97H25.21zM27.58 4.84c0.05 0.01 0.11 0.01 0.17 0.03 0.46 0.09 0.91 0.21 1.36 0.33 0.17 0.05 0.35 0.08 0.52 0.13 0.35 0.1 0.69 0.24 1.04 0.36 0.27 0.1 0.54 0.18 0.8 0.29 0.24 0.1 0.48 0.22 0.72 0.33 0.35 0.16 0.71 0.32 1.05 0.51 0.14 0.07 0.27 0.16 0.4 0.24 0.43 0.24 0.85 0.49 1.26 0.77 0.02 0.01 0.04 0.03 0.05 0.04 0.08 0.05 0.15 0.12 0.23 0.17-1.41-0.16-3.05 0.06-4.82 0.62-0.86-1.65-1.86-2.96-2.97-3.85C27.45 4.83 27.51 4.83 27.58 4.84zM24 4.51c0.04 0 0.08 0.01 0.12 0.01 1.97 0.07 3.8 1.74 5.24 4.49-1.71 0.64-3.52 1.58-5.36 2.79-1.84-1.2-3.65-2.14-5.36-2.79 1.44-2.74 3.27-4.42 5.24-4.49C23.92 4.51 23.96 4.51 24 4.51zM13.06 7.87c0.02-0.01 0.04-0.03 0.05-0.04 0.41-0.27 0.83-0.52 1.26-0.77 0.13-0.08 0.26-0.16 0.4-0.24 0.34-0.18 0.7-0.34 1.05-0.51 0.24-0.11 0.47-0.23 0.72-0.33 0.26-0.11 0.53-0.2 0.8-0.29 0.34-0.12 0.69-0.26 1.04-0.36 0.17-0.05 0.35-0.09 0.52-0.13 0.45-0.12 0.9-0.24 1.36-0.33 0.05-0.01 0.11-0.02 0.17-0.03 0.06-0.01 0.13-0.02 0.19-0.03-1.11 0.89-2.11 2.2-2.97 3.85-1.78-0.56-3.41-0.78-4.82-0.62C12.9 7.99 12.98 7.93 13.06 7.87zM10.12 10.33c0.06-0.07 0.13-0.13 0.19-0.2C11.13 9.37 12.28 9 13.67 9c1.05 0 2.24 0.21 3.51 0.6-0.75 1.66-1.37 3.61-1.82 5.76-2.16 0.45-4.12 1.07-5.78 1.83C8.64 14.14 8.82 11.73 10.12 10.33zM14.51 24.5c0.01 0.54 0.01 1.09 0.04 1.62-0.42-0.54-0.83-1.08-1.21-1.62H14.51zM13.34 23.5c0.38-0.54 0.78-1.08 1.21-1.62-0.02 0.53-0.03 1.08-0.04 1.62H13.34zM14.67 27.87c0.11 1.27 0.27 2.49 0.48 3.67-1.95-0.45-3.71-1.03-5.22-1.73 0.02-0.04 0.03-0.08 0.04-0.13 0.59-1.55 1.42-3.16 2.44-4.77C13.09 25.9 13.85 26.89 14.67 27.87zM14.67 20.13c-0.82 0.97-1.57 1.96-2.26 2.96-1.02-1.61-1.85-3.22-2.44-4.77-0.02-0.04-0.03-0.08-0.04-0.13 1.51-0.69 3.27-1.28 5.22-1.73C14.94 17.64 14.78 18.86 14.67 20.13zM4.86 20.32c0-0.02 0-0.04 0.01-0.05 0.09-0.48 0.22-0.96 0.35-1.44 0.04-0.15 0.07-0.3 0.11-0.45 0.11-0.37 0.25-0.73 0.38-1.1 0.09-0.25 0.17-0.5 0.27-0.75 0.11-0.26 0.23-0.51 0.35-0.76 0.16-0.34 0.31-0.68 0.49-1.01 0.08-0.15 0.18-0.29 0.26-0.44 0.24-0.41 0.48-0.83 0.74-1.22 0.02-0.03 0.05-0.06 0.07-0.09 0.05-0.07 0.11-0.14 0.16-0.21-0.15 1.39 0.06 3.01 0.63 4.82-1.66 0.86-2.98 1.87-3.87 2.98C4.83 20.52 4.84 20.42 4.86 20.32zM9.02 18.63c0.01 0.02 0.01 0.03 0.02 0.05 0.6 1.57 1.43 3.19 2.45 4.82H8 4.56C4.82 21.68 6.44 19.98 9.02 18.63zM4.56 24.5H8h3.48c-1.02 1.63-1.85 3.25-2.45 4.82-0.01 0.02-0.01 0.03-0.02 0.05C6.44 28.02 4.82 26.32 4.56 24.5zM8.05 35.19C8 35.11 7.94 35.05 7.9 34.98c-0.02-0.03-0.05-0.06-0.07-0.09-0.27-0.39-0.51-0.81-0.74-1.22C7 33.52 6.91 33.37 6.83 33.22c-0.18-0.33-0.33-0.67-0.49-1.01-0.12-0.25-0.25-0.5-0.35-0.76-0.1-0.24-0.18-0.5-0.27-0.75-0.13-0.36-0.27-0.73-0.38-1.1-0.04-0.15-0.07-0.3-0.11-0.45-0.13-0.48-0.26-0.95-0.35-1.44 0-0.02 0-0.04-0.01-0.05-0.02-0.1-0.03-0.2-0.04-0.29 0.89 1.11 2.21 2.12 3.87 2.98C8.11 32.18 7.9 33.8 8.05 35.19zM9.58 30.81c1.51 0.69 3.27 1.26 5.2 1.7l-2.45 2.45L9.9 37.4C8.81 35.96 8.7 33.68 9.58 30.81zM10.61 38.1l2.43-2.43 2.45-2.45c0.44 1.92 1.01 3.67 1.69 5.18C14.42 39.25 12.08 39.2 10.61 38.1zM20.46 43.16c-0.07-0.01-0.14-0.02-0.2-0.03-0.45-0.09-0.89-0.21-1.34-0.33-0.18-0.05-0.37-0.09-0.55-0.14-0.34-0.1-0.68-0.23-1.02-0.36-0.27-0.1-0.55-0.19-0.82-0.3-0.24-0.1-0.47-0.22-0.7-0.32-0.36-0.17-0.72-0.33-1.07-0.51-0.13-0.07-0.25-0.15-0.38-0.22-0.43-0.25-0.87-0.5-1.28-0.78-0.01-0.01-0.02-0.02-0.03-0.02-0.09-0.06-0.16-0.13-0.25-0.19 0.3 0.03 0.59 0.07 0.91 0.07 1.19 0 2.51-0.24 3.92-0.68 0.86 1.65 1.86 2.96 2.97 3.84C20.57 43.18 20.51 43.17 20.46 43.16zM23.88 43.49c-1.97-0.06-3.8-1.74-5.24-4.48 1.71-0.64 3.52-1.57 5.36-2.78 1.84 1.2 3.65 2.14 5.36 2.78-1.45 2.74-3.28 4.42-5.24 4.48C24.04 43.49 23.96 43.49 23.88 43.49zM34.93 40.14c-0.01 0.01-0.02 0.02-0.03 0.02-0.41 0.28-0.84 0.53-1.28 0.78-0.13 0.07-0.25 0.16-0.38 0.22-0.35 0.19-0.71 0.35-1.07 0.51-0.23 0.11-0.46 0.23-0.7 0.32-0.27 0.11-0.55 0.2-0.82 0.3-0.34 0.12-0.67 0.25-1.02 0.36-0.18 0.05-0.37 0.09-0.55 0.14-0.44 0.12-0.89 0.24-1.34 0.33-0.07 0.01-0.14 0.02-0.2 0.03-0.05 0.01-0.11 0.01-0.16 0.02 1.11-0.88 2.11-2.19 2.97-3.84 1.41 0.44 2.73 0.68 3.92 0.68 0.32 0 0.61-0.03 0.91-0.07C35.09 40.02 35.01 40.08 34.93 40.14zM37.88 37.67c-0.07 0.07-0.13 0.13-0.2 0.2-1.44 1.34-3.92 1.44-6.87 0.53 0.75-1.66 1.37-3.61 1.82-5.76 2.16-0.45 4.12-1.07 5.78-1.83C39.36 33.86 39.18 36.27 37.88 37.67zM43.14 27.68c0 0.02 0 0.04-0.01 0.05-0.09 0.48-0.22 0.96-0.35 1.43-0.04 0.15-0.07 0.3-0.12 0.45-0.11 0.37-0.25 0.73-0.38 1.09-0.09 0.25-0.17 0.5-0.27 0.75-0.11 0.26-0.24 0.51-0.35 0.76-0.16 0.34-0.31 0.68-0.49 1.01-0.08 0.15-0.17 0.29-0.26 0.44-0.24 0.42-0.48 0.83-0.75 1.23-0.02 0.03-0.04 0.06-0.07 0.09-0.05 0.07-0.11 0.14-0.16 0.21 0.15-1.39-0.06-3.01-0.63-4.82 1.66-0.86 2.98-1.87 3.87-2.98C43.17 27.48 43.16 27.58 43.14 27.68zM38.98 29.37c-0.01-0.02-0.01-0.03-0.02-0.05-0.6-1.57-1.43-3.19-2.45-4.82H40h3.44C43.18 26.32 41.56 28.02 38.98 29.37zM40 23.5h-3.48c1.02-1.63 1.85-3.25 2.45-4.82 0.01-0.02 0.01-0.03 0.02-0.05 2.57 1.35 4.2 3.05 4.46 4.87H40z" fill="#ffffff" data-fill-palette-color="accent"></path></g></svg></g></svg></g></svg></g><defs></defs></svg><rect width="395.52" height="29.984470747258566" fill="none" stroke="none" visibility="hidden"></rect></g></svg></g></svg>